<?xml version="1.0" encoding="UTF-8"?>
<svg xmlns="http://www.w3.org/2000/svg" version="1.1" viewBox="0 0 1080 1920">
  <!-- Generator: Adobe Illustrator 29.6.1, SVG Export Plug-In . SVG Version: 2.1.1 Build 9)  -->
  <defs>
    <style>
      .st0 {
        fill: #939598;
      }
    </style>
  </defs>
  <g id="A15">
    <path class="st0" d="M577.28,711.18v167.83s207.16.62,208.02-1.03c8.75-16.68-15.37-63.69-15.37-63.69,0,0,9.92,15.84,12.25,19.65,34.4,56.13,119.43,101.81,119.44,101.82,0,0-43.31-18.37-48.03-15.46-13.85,8.56-36.52,27.59-45.15,41.3-.93,1.47-3.28,5.34-3.15,6.8.34,3.94,13.83,23.6,13.83,23.6,0,0-58.38-32.21-70.38-33.05-2.48-.17-5.97-.2-8.75-.21-44.08-.21-88.12.01-132.23-.02-16.61,3.69-47.65,17.58-47.65,17.58,0,0-76.53-25.06-76.53-25.06,0,0,36.1-.55,41.21-.96l.95-239.36,51.54.27Z"/>
  </g>
  <g id="A14">
    <path class="st0" d="M577.28,711.18l247.48-.93c.68.63-3.29,38.43-3.29,38.43,0,0,5.7-14.16,9.03-20.98,26.44-54.16,45.81-56.39,45.81-56.39,0,0-24.04-29.39-24.04-29.39,0,0-12.13,4-18.33,5.78-8.37,2.4-17.07,4.28-25.54,6.33l-243.82.02c-15.15-4.07-30.01-9.26-44.25-15.79-4.18-1.08-3.27,1.74-4.93,4-4.9,6.64-9.62,13.53-14.61,20.08-3.84,5.03-14.58,20.02-18.47,23.25-1.89,1.57-23.18,10.14-23.18,10.14,0,0,40.01,1.04,55.71,8.07,3.67,1.65,10.9,7.12,10.9,7.12l51.54.27Z"/>
  </g>
  <g id="A13">
    <path class="st0" d="M716.35,605.57c-4.97,4.66-12.4,12.29-16.74,17.47-3.02,3.61-16.4,24.88-19.56,24.34-3.52-.6-1.05-6.43-1.11-8.86-.06-2.66-.18-10.97-1.59-12.42-1.1-1.13-10.5-5.94-13.2-7.89-13.33-9.68-32.54-26.78-43.29-39.21-1.34-1.55-8.65-9.74-7.02-11.26,5.5-.86,10.68.3,16.11,1.23,26.34,4.51,57.16,14.71,82.89,17.42,5.61.59,17.09-1.09,21.31.25,1.98.63,2.09,2.66.68,4.13-6.32,4.58-12.8,9.48-18.48,14.8Z"/>
  </g>
  <g id="A12">
    <path class="st0" d="M819.44,404.58c-21.34-3.07-48.24-2.48-68.01-11.48-6.56-2.98-12.33-10.91-19.5-6.63l-14.66,80.81s-16.82,36.85-15.35,39.92c.86.5,1.22,1.41.84,2.66l-10.68,23.16c-.6,1.33-.52,2.61-.25,4.01.84,4.25,11.72,20.71,15.01,24.47,2.43,2.79,18.82,17.78,17.68,6.74-.17-1.69-2.51-3.31-3.39-5.14-1.82-3.81-7.71-20.49-6.84-23.76l25.14-32,24.41-39.93,23.1-47.72c2.57-3.66,14.3-6.71,19.07-8.07,4-1.13,18.19-1.44,13.43-7.05Z"/>
  </g>
  <g id="A11">
    <path class="st0" d="M875.44,465.97l-111.6,1.45h-76.53s-27.92,39.38-27.92,39.38h41.16c.54.05,1,.2,1.37.41l37.51.14,94.71-.55v21.09c0,.46-4.67,7.78,1.64,6.43,5.82-1.25,3.45-7,4.39-11.64.71-3.48,5.8-13.92,7.67-17.65,2.69-5.38,18.14-31.45,22.58-32.74,4.4-1.28,9.34,1.73,5.02-6.33Z"/>
  </g>
  <g id="A10">
    <path class="st0" d="M636.01,467.42h-3.43s-42.19,0-42.19,0h-39.36c1.27-3.48,1.99-18.29-1.43-19.67-2.4-.97-1.95,1.26-3.05,1.82-.66.34-2.3-.29-2.89.15-.68.5-4.07,13.54-5.04,16.07-7.84,20.42-19.33,45.01-31.66,63.03-1.52,2.22-11.61,10.54-5.12,11.77,2.81.53,2.15-1.35,3.33-2.26,14.38-11.14,29.05-21.99,44.89-31.1l44.08-.44h37.51s27.73,0,27.73,0l27.92-39.38h-51.29Z"/>
  </g>
  <g id="A9">
    <path class="st0" d="M632.59,467.42c-.44-4.6.85-9.01.97-13.54.26-9.98-1.19-22.2-.44-31.61.76-9.62,6.98-20.36,8.85-29.85-.91-.84-20.78,5.49-23.95,6.02-16.93,2.84-41.85,3.79-58.91,2.31-1.97-.17-12.8-4.45-10.85,1.47.43,1.3,9.63,3.92,11.85,5.02,5.35,2.65,22.08,12.84,24.56,17.63,1.87,3.61,3.15,13.41,3.75,17.81,1.06,7.78,1.03,16.8,1.98,24.73l3.75,39.38c-.67,5.88,2.76,14.88,2.37,20.19-.81,10.83-19.5,39.6-28.67,45.85-1.79,1.22-11.31,4-7.36,7.03,3.54,2.7,21.28-8.52,25.15-10.79,19.53-11.47,38.59-24.54,57.97-36.67,2.07-1.3,3.37-3.37,6.61-4.69,2.02-.83,7.9-.31,7.45-3.58-.56-4.09-12.21-.42-15.91-.73-2.47-.21-8.53-1.27-10.13-3.01-1.84-2,.53-10.72.03-13.59l.93-39.37Z"/>
  </g>
  <g id="A8">
    <path class="st0" d="M341.06,905.25c26.03-4,52.12-7.75,77.81-13.58,11.78-2.68,31.33-6.49,41.62-11.85,1.35-.7,5.74-3.24,5.74-3.24,0,0,2.5,3.88,3.54,5.32,9.03,12.55,38.14,35.53,38.15,35.53,0,0-44.32-13.93-44.32-13.93,0,0-14.85,9.79-22.55,14.09-24.96,13.96-158.32,64.86-168.63,69.3-2.66,1.14-23.2,19.57-23.2,19.57,0,0-1.17-21.92-2.39-24.27l-40.62-61.64c-3.03-7.29,1.82-4.58,4.99-4.93,17.67-1.94,88.81-5.64,106.88-7.58,2.58-.28,20.91-1.65,21.87-2.48l1.12-.33Z"/>
  </g>
  <g id="A7">
    <path class="st0" d="M398.41,814.96c10.12-16.51,22.76-35.31,35.28-49.96,1.56-1.82,10.76-10.39,10.76-10.39,0,0,18.39,21.22,30.78,33.39,6.54,6.43,14.24,11.55,22.69,15.11h0s-27.45.27-31.67.94c-2.77.44-26.88,19.94-30.97,23.41-1.49,1.27-19.34,17.01-18.3,17.78,3.93.85,17.88.8,17.88.8-3.17-1.45-55.46,25.5-53.5,26.4,0,0-5.89-20.05,17.05-57.48Z"/>
  </g>
  <g id="A6">
    <path class="st0" d="M300.52,816.05c2.01.2,7.64-.21,7.64-.21,0,0-3.59,5.49-5.03,6.96-9.68,9.93-24.29,30.7-29.75,43.38-1.12,2.61-6.02,16.51-6.02,16.51,0,0,2.6-28.1,2.48-29.58-.02-.31-2.8-2.5-3.8-3.65-32.91-37.91-35.99-85.63-35.99-85.63,0,0,47.84,49.94,70.45,52.21Z"/>
  </g>
  <g id="A5">
    <path class="st0" d="M332.94,623.85s.59,187.83.57,214.33c-.01,17.86-1.46,40.08.1,57.2.43,4.71,6.94,9.68,6.33,10.2,0,0,.72.69,1.12-.33-.91-.98,2.62-6.23,3.36-7.41,2.47-3.98,19.93-26.78,22.01-28.64,1.65-1.48,3.62-4.03,4-4.09,0,0-9.51-20.38-10.12-32.54l.43-208.68"/>
  </g>
  <g id="A4">
    <path class="st0" d="M360.73,737.43l59.43-.05c1.24.33,3.85,11.31,3.85,11.31,0,0,22.09-30.86,22.98-31.4,3.87-2.35,22.5-3.76,22.5-3.76l-41.5-13.81-12.45-6.4-9.33,2.34-45.46-.88-26.26.43c-21.92,1.34-66.02,1.04-66.02,1.04,0,0-16.38,18.17-25.05,20.89-6.9,2.16-13.06,2.02-20,1.82-3.79-.11-20.48-2.19-20.48-2.19,0,0,50.52,19.7,50.52,19.7l79.5.93,27.79.05Z"/>
  </g>
  <g id="A3">
    <path class="st0" d="M360.74,624.93l70.6-.02c1.2.29,10.95,17.84,10.95,17.84,0,0,.72-9.5,2.12-13.36,3.99-10.98,48.51-48.52,48.51-48.52l-204.36,1.86,1.42-26.58s-.68,12.75-10.82,26.08c-16.43,21.6-60.91,56.29-60.91,56.29,0,0,53.84-14.47,53.84-14.47,0,0,41.6.14,62.35.93l26.29-.04Z"/>
  </g>
  <g id="A2">
    <path class="st0" d="M384.31,424.06c-.12.63.25,1.19.55,1.83,1.94,4.09,12.08,14.87,15.71,19.05,15.04,17.36,33.24,36.52,50.15,52.03,5.15,4.73,20.85,19.14,26.78,20.08,11.21,1.79,18.87-6.51,28.54-10.24-2.2,2.44-3.64,7.03-5.23,9.29-4.69,6.62-14.76,18.39-20.53,24.47-3.77,3.98-12.48,9.76-14.95,13.18-3.09,4.27-3.2,15.7-6.65,20.56-4.8.92-28.98-23.08-33.3-27.64-8.06-8.5-16.87-19.02-24.31-28.17-15.78-19.4-31.11-39.45-39.41-63.26l22.64-31.18Z"/>
  </g>
  <g id="A1">
    <path class="st0" d="M361.66,455.23s-63.86,106.24-124.17,125.66c-4.29,1.38-11.85,2.6-11.85,2.6,0,0-.73-5.92-2.54-10.43-8.01-19.9-24.68-34.34-44.72-38.11,0,0,17.54-3.26,38.48,9.1,29.49-27.19,58.77-59.62,78.25-94.92,11.84-21.45,18.17-45.5,25.39-68.82,10.99,6.21,12.94,5.43,20.09,6.29,27.32.66,55.08-2.06,82.47-.78,1.29.06,9.86.99,9.86.99,0,0-27.09,12.18-31.86,14.53l-16.45,22.06c-.17.23-.26.45-.3.66l-22.64,31.18Z"/>
  </g>
</svg>